<svg xmlns="http://www.w3.org/2000/svg" viewBox="0 0 153.38 147">
  <title>mascote do colaborabot</title>
  <g>
    <g>
      <path fill="#fff" d="M20.9,55.86l-2,4.38s-2,4.62-.83,9l.18.71c1,3.91,2.4,9.2,19.46,7.65l-1.87-23a8.4,8.4,0,0,1,1.77-7.67A56.31,56.31,0,0,1,17.84,14.38c-3.36,1.85-7.43,5-7.65,8.79a12.41,12.41,0,0,0,3.91,9.51l4.67,3.86-5.9,1.38c-6.2,1.57-6.65,8.42-6.68,9.19-.11,2.68.54,4.69,2,6.14C11,56.11,16,56,16.09,56Z"/>
      <path fill="#fff" d="M136.82,56c.05,0,5.11.11,7.94-2.75,1.43-1.45,2.07-3.46,2-6.14,0-.77-.48-7.62-6.68-9.19l-5.9-1.38,4.67-3.86a12.43,12.43,0,0,0,3.92-9.51c-.23-3.82-4.29-6.94-7.66-8.79a56.26,56.26,0,0,1-19.79,32.54,8.37,8.37,0,0,1,1.77,7.67l-1.87,23c17.06,1.55,18.43-3.74,19.46-7.65l.19-.71c1.18-4.35-.82-8.94-.84-9l-2-4.38Z"/>
      <circle fill="#88a5b0" cx="31.36" cy="54.5" r="3.5"/>
      <circle fill="#88a5b0" cx="120.36" cy="54.5" r="3.5"/>
      <path fill="#88a5b0" d="M109,49.69A5.47,5.47,0,0,0,105,48H47.1a5.52,5.52,0,0,0-5.5,6l4,48.67A7,7,0,0,0,52.48,109H65.86v9.65h6.7v5.7h-6.7v7.3h6.7v5.7h-6.7v.43A3.23,3.23,0,0,0,69.09,141H85.64a3.22,3.22,0,0,0,3.22-3.22v-.43h-6.7v-5.7h6.7v-7.3h-6.7v-5.7h6.7V109h12.9a6.92,6.92,0,0,0,6.93-6.67l1.84-48.6A5.46,5.46,0,0,0,109,49.69Z"/>
      <rect fill="#88a5b0" x="52.86" y="6" width="46" height="20"/>
    </g>
    <g>
      <path d="M77.54,64l-10,3.69V79.6l10,5.27,10-5.27V67.65ZM85.68,68l-8.14,3.43L69.4,68l8.14-3Zm-17.14.72L77,72.33V83.48L68.54,79ZM78,83.48V72.33l8.5-3.58V79Z"/>
      <path d="M80.57,74A1.44,1.44,0,0,0,80,75.17a.45.45,0,0,0,.26.52.59.59,0,0,0,.65,0,1.34,1.34,0,0,0,.59-1.25A.53.53,0,0,0,80.57,74Z"/>
      <path d="M84.19,75.91a.66.66,0,0,0-.73.19,1.53,1.53,0,0,0-.46,1c0,.24,0,.49.27.59a.67.67,0,0,0,.74-.1,1.52,1.52,0,0,0,.5-1.06C84.49,76.28,84.47,76,84.19,75.91Z"/>
      <path d="M75.1,73.1a.48.48,0,0,0-.78.3,1.35,1.35,0,0,0,.37,1.21.64.64,0,0,0,.73.2c.27-.12.27-.36.28-.63A1.37,1.37,0,0,0,75.1,73.1Z"/>
      <path d="M71.09,76.67a.47.47,0,0,0-.76.29,1.33,1.33,0,0,0,.37,1.24.61.61,0,0,0,.71.18c.28-.1.28-.34.29-.62A1.36,1.36,0,0,0,71.09,76.67Z"/>
      <path d="M73.07,75a.49.49,0,0,0-.79.37v.19a1.29,1.29,0,0,0,.57,1.09.5.5,0,0,0,.81-.33A1.36,1.36,0,0,0,73.07,75Z"/>
      <path d="M76.52,68.2a1.77,1.77,0,0,0,1,.22,1.92,1.92,0,0,0,.24,0,1.65,1.65,0,0,0,.81-.26.39.39,0,0,0,0-.67.74.74,0,0,0-.22-.14,4.29,4.29,0,0,0-.71-.16,1.86,1.86,0,0,0-1.13.22C76.14,67.64,76.14,68,76.52,68.2Z"/>
    </g>
    <g>
      <path d="M153.36,46.86a16.09,16.09,0,0,0-7-13.07,18.29,18.29,0,0,0,3-11c-.63-10.68-14.71-15.87-15.31-16.08l-4.28-1.54-.39,4.53c0,.2-2,20.42-19.46,33.4A11.48,11.48,0,0,0,105,42H81.77a5.55,5.55,0,0,0,.09-1,6,6,0,0,0-3-5.19V32h23a3,3,0,0,0,3-3V3a3,3,0,0,0-3-3h-52a3,3,0,0,0-3,3V29a3,3,0,0,0,3,3h23v3.81a6,6,0,0,0-3,5.19A6.64,6.64,0,0,0,70,42H47.1a11.6,11.6,0,0,0-4.09.77C26,29.84,24,9.9,24,9.7l-.39-4.53L19.33,6.71c-.6.21-14.68,5.4-15.31,16.08A18.22,18.22,0,0,0,7,33.79,16.09,16.09,0,0,0,0,46.86c-.18,4.54,1.12,8.24,3.88,11A16,16,0,0,0,12,62a19.62,19.62,0,0,0,.17,8.89,16.38,16.38,0,0,0,7.37,9.7l-3.16,9.6A9.51,9.51,0,0,0,8.86,99.5a3,3,0,0,0,6,0,3.5,3.5,0,0,1,7,0,3,3,0,0,0,6,0,9.49,9.49,0,0,0-5.43-8.57l2.62-8a33.39,33.39,0,0,0,8.88,1.09c1.29,0,2.65-.06,4.09-.18l1.57,19.24A13,13,0,0,0,52.48,115h7.38v22.78A9.24,9.24,0,0,0,69.09,147H85.64a9.24,9.24,0,0,0,9.22-9.22V115h6.9a12.88,12.88,0,0,0,12.92-12.44l.71-18.67c1.42.11,2.78.17,4,.17a35,35,0,0,0,7.36-.72l2.49,7.59a9.51,9.51,0,0,0-5.43,8.57,3,3,0,0,0,6,0,3.5,3.5,0,0,1,7,0,3,3,0,0,0,6,0,9.51,9.51,0,0,0-7.48-9.28l-2.91-8.83a16.51,16.51,0,0,0,8.77-10.47,19.76,19.76,0,0,0,.17-8.89,16,16,0,0,0,8.07-4.17C152.24,55.1,153.54,51.4,153.36,46.86ZM52.86,26V6h46V26Zm-44,26.9C7.5,51.55,6.91,49.67,7,47.14c.28-7,5.72-8.58,6.3-8.73l6.88-1.61-5.45-4.5A11.86,11.86,0,0,1,11,23.21c.2-3.41,3.7-6.26,6.83-8.07A58,58,0,0,0,36.63,46.6a9.5,9.5,0,0,0-14.77,7.9c0,.29,0,.57.05.85l-5.51.15C15.06,55.55,11.05,55.14,8.83,52.9Zm26,1.6a3.5,3.5,0,1,1-3.5-3.5A3.5,3.5,0,0,1,34.86,54.5Zm-16,14.58c-1.14-4.16.8-8.6.81-8.63l2.22-4.93a9.51,9.51,0,0,0,3.7,6.53L21.81,73.63A9,9,0,0,1,18.89,69.08Zm8.37,7.18,4-12.26h.07a9.41,9.41,0,0,0,4.93-1.39L37.45,76.9A31,31,0,0,1,27.26,76.26Zm61.6,42.39h-6.7v5.7h6.7v7.3h-6.7v5.7h6.7v.43A3.22,3.22,0,0,1,85.64,141H69.09a3.23,3.23,0,0,1-3.23-3.22v-.43h6.7v-5.7h-6.7v-7.3h6.7v-5.7h-6.7V115h23Zm19.83-16.32a6.92,6.92,0,0,1-6.93,6.67H52.48a7,7,0,0,1-6.91-6.37L41.6,54a5.52,5.52,0,0,1,5.5-6H105a5.52,5.52,0,0,1,5.51,5.73ZM120.36,51a3.5,3.5,0,1,1-3.5,3.5A3.5,3.5,0,0,1,120.36,51Zm-4.7,25.88L116.18,63a9.45,9.45,0,0,0,4.18,1h.07l4.15,12.6A33.82,33.82,0,0,1,115.66,76.88Zm28.88-24c-2.21,2.24-6.2,2.63-7.55,2.6l-5.66-.21,2.35,5.16s1.94,4.46.81,8.63a9.23,9.23,0,0,1-4.26,5.5l-4.12-12.53a9.49,9.49,0,0,0-5.75-17,9.18,9.18,0,0,0-2,.23,58.41,58.41,0,0,0,17.22-30.09c3.13,1.81,6.63,4.66,6.83,8.07a11.73,11.73,0,0,1-3.74,9.09l-5.44,4.5,6.88,1.61c.06,0,6,1.48,6.29,8.73A7.31,7.31,0,0,1,144.54,52.9Z"/>
      <circle cx="65.86" cy="16" r="3"/>
      <circle cx="85.32" cy="16" r="3"/>
    </g>
  </g>
</svg>
