<svg xmlns="http://www.w3.org/2000/svg" viewBox="0 0 397.01 375.86">
  <title>logo colaboradados</title>
  <path d="M.28,297.31q.06-86.11,0-172.24c0-2.55,1-3.44,3.14-4.23q50.78-18.42,101.51-37c10.89-4,21.75-8,32.69-11.83a8.67,8.67,0,0,1,5.4,0Q173.19,82.84,203.26,94c2.56,1,3.9.72,5.32-1.87a106.07,106.07,0,0,0,12.15-39.41c1.65-14.41,2-29,2.86-43.47.09-1.55,0-3.11,0-5,12.52-.3,24.45-.47,35.62,5a40.07,40.07,0,0,1,21.44,44.27c-.1.44-.16.87-.31,1.66,10.39,3.61,16.84,11.39,21.63,21.3C318.4,53.63,325.93,28.21,327.72.25c6.63,2.26,12.79,4.23,18.85,6.47a80.75,80.75,0,0,1,24.64,13.79c15.53,13.15,19.78,32.56,11.07,51-1.53,3.24-3.38,6.33-4.94,9.21,17.42,12.17,22.4,28.92,17.79,48.79-3.95,17-17.57,29.87-33.27,32.46,2.4,9.33,1.28,18.51-1.88,27.42-6.07,17.12-19.21,26.14-36.1,30.4-12.18,3.07-24.55,4.64-37.15,2.87a37.21,37.21,0,0,0-4.73-.13c-.43,0-.86.08-1.69.16v4q0,35.2,0,70.39c0,2-.43,3.19-2.35,4.23q-67.4,36.6-134.68,73.41a5.54,5.54,0,0,1-6.11-.08Q69.91,337.87,2.52,301.26A3.8,3.8,0,0,1,.28,297.31ZM374.46,115.54c.23-4.51-1.66-8.25-4.55-11.59-4.64-5.35-10.55-8.58-17.25-10.62-4.28-1.31-8.5-2.84-13.31-4.46,4.24-4.16,8-7.73,11.61-11.43,5.55-5.69,10-12.12,12.25-19.83,2-6.8.49-13.47-4.35-16.75-4.32-2.93-9.05-5.24-13.05-7.51C342,43.52,338.9,53.58,334.63,63.13c-11.41,25.55-28.94,46.41-50.77,63.71a9.15,9.15,0,0,0-3.92,8.18c.18,20.06.08,40.13.08,60.19v4.27c15.35,1.47,30.17,1.44,44.54-3.93,8-3,13.75-8.43,15-17a52.1,52.1,0,0,0-.14-16.72c-1.31-7.2-4-14.16-5.95-20.93,4.3,0,8.47-.27,12.59,0C365.79,142.43,373.7,131,374.46,115.54Zm-95.92-12.62c4.65-3.49,5.27-8.21,4.19-13.24-2.09-9.76-9.44-14.55-18-18-2.88-1.16-5.86-2-8.68-3,1.06-5.71,2.37-11.06,3-16.49a26.89,26.89,0,0,0-3.58-17.47c-2.35-3.89-6.08-4.18-10.21-4.92-2,25.39-4.39,50.49-16.81,73.38,10.92,4,21.53,7.92,32.21,11.64a4.85,4.85,0,0,0,3.85-.84C269.27,110.42,273.77,106.49,278.54,102.92ZM256.86,282.84q-.12-65.44-.06-130.91v-4.05c-1.78.76-3.1,1.3-4.4,1.89Q203.7,171.93,155,194c-2.44,1.1-3.21,2.34-3.21,5q.13,70.2.08,140.39c0,1.17.1,2.35.17,3.89,1.27-.61,2.17-1,3-1.47q49.41-26.91,98.83-53.76C256.23,286.79,256.86,285.38,256.86,282.84Zm-22-150.25c.83-.38,1.62-.85,2.9-1.53-1.68-.65-2.71-1.07-3.75-1.44q-45.33-16.44-90.7-32.78a9.69,9.69,0,0,0-6.07,0c-23.11,8.22-46.16,16.6-69.22,25-8.18,3-16.34,6-25.14,9.17,1,.61,1.24.81,1.53.94q47.13,21.53,94.28,43a5.13,5.13,0,0,0,3.7-.24Q188.64,153.7,234.83,132.59Zm-106,208.26q0-71.37.07-142.75c0-2.3-1.05-3.09-2.81-3.89q-37.41-16.94-74.76-33.94L24,147.87c-.09,1-.17,1.49-.17,1.93q0,67.15-.07,134.3c0,2.16,1.09,2.83,2.65,3.68q49.71,27,99.38,54.16c.84.45,1.74.79,2.86,1.31C128.72,342.16,128.79,341.5,128.79,340.85Z"/>
  <g class="logo-wings" fill="#f6f5f4">
    <path d="M369.91,104c2.89,3.34,4.78,7.08,4.55,11.59-.76,15.49-8.67,26.89-28.36,25.37-4.12-.31-8.29,0-12.59,0,2,6.77,4.64,13.73,5.95,20.93a52.1,52.1,0,0,1,.14,16.72c-1.29,8.6-7,14-15,17-14.37,5.37-29.19,5.4-44.54,3.93v-4.27c0-20.06.1-40.13-.08-60.19a9.15,9.15,0,0,1,3.92-8.18c21.83-17.3,39.36-38.16,50.77-63.71,4.27-9.55,7.4-19.61,11.18-29.78,4,2.27,8.73,4.58,13.05,7.51,4.84,3.28,6.36,10,4.35,16.75-2.28,7.71-6.7,14.14-12.25,19.83-3.62,3.7-7.37,7.27-11.61,11.43,4.81,1.62,9,3.15,13.31,4.46C359.36,95.37,365.27,98.6,369.91,104Z"/>
    <path d="M282.73,89.68c1.08,5,.46,9.75-4.19,13.24s-9.27,7.5-14,11.08a4.85,4.85,0,0,1-3.85.84c-10.68-3.72-21.29-7.66-32.21-11.64,12.42-22.89,14.78-48,16.81-73.38,4.13.74,7.86,1,10.21,4.92a26.89,26.89,0,0,1,3.58,17.47c-.6,5.43-1.91,10.78-3,16.49,2.82,1,5.8,1.83,8.68,3C273.29,75.13,280.64,79.92,282.73,89.68Z"/>
  </g>
  <g fill="#f6f5f4">
    <path class="a" d="M256.8,151.93q0,65.46.06,130.91c0,2.54-.63,4-3,5.22Q204.4,314.84,155,341.82c-.86.47-1.76.86-3,1.47-.07-1.54-.17-2.72-.17-3.89q0-70.2-.08-140.39c0-2.65.77-3.89,3.21-5q48.76-22,97.43-44.25c1.3-.59,2.62-1.13,4.4-1.89Z"/>
    <path class="a" d="M237.73,131.06c-1.28.68-2.07,1.15-2.9,1.53q-46.21,21.07-92.47,42.08a5.13,5.13,0,0,1-3.7.24q-47.18-21.39-94.28-43c-.29-.13-.55-.33-1.53-.94,8.8-3.21,17-6.21,25.14-9.17,23.06-8.36,46.11-16.74,69.22-25a9.69,9.69,0,0,1,6.07,0q45.41,16.25,90.7,32.78C235,130,236.05,130.41,237.73,131.06Z"/>
    <path class="a" d="M128.86,198.1q-.13,71.37-.07,142.75c0,.65-.07,1.31-.14,2.4-1.12-.52-2-.86-2.86-1.31q-49.7-27.09-99.38-54.16c-1.56-.85-2.65-1.52-2.65-3.68q.12-67.16.07-134.3c0-.44.08-.89.17-1.93l27.29,12.4q37.37,17,74.76,33.94C127.81,195,128.86,195.8,128.86,198.1Z"/>
  </g>
  <g>
    <path d="M171.44,235.65c.29-9,3.35-16.68,11.11-21.78s15.21-1.51,15.84,7.73-3.08,17-10.57,22.48A10.92,10.92,0,0,1,176,245C172.1,243.06,170.84,239.84,171.44,235.65Z"/>
    <path d="M239.25,252.2a26.6,26.6,0,0,1-9,19c-4,3.68-8.63,3.66-13.18,1.92-4.8-1.83-5.35-6.33-5-10.74a28.18,28.18,0,0,1,8.27-18.23c3.78-3.73,8.13-5.28,13.16-3.36S239,247.44,239.25,252.2Z"/>
    <path d="M116.82,219.29c-.24,4.5-.24,8.42-4.66,10.23-4,1.64-8.4.58-11.86-3.16-5.14-5.58-7.51-12.14-6-19.73,1.24-6.19,7.53-8.63,12.71-4.93A22.32,22.32,0,0,1,116.82,219.29Z"/>
    <path d="M58.59,270.74c-.28,4.45-.28,8.5-4.76,10.1a10,10,0,0,1-11.59-2.93c-5.32-5.8-7.81-12.49-6.1-20.3,1.27-5.8,7.43-8.09,12.38-4.7A22.36,22.36,0,0,1,58.59,270.74Z"/>
    <path d="M64.52,237.32a25.52,25.52,0,0,1,0-3c.8-6.77,7.25-9.82,12.92-6.13,7,4.55,11.11,13.85,9.52,21.5-1.38,6.69-7.41,9.23-13.22,5.4C67.43,250.9,64.84,244.66,64.52,237.32Z"/>
    <path d="M140.38,141.36c-6.4.23-12.56-.78-18.11-4.14-6.89-4.17-6.89-10.24.06-14.39,6.39-3.81,13.54-4.89,20.78-4.21,4.39.41,8.71,1.86,13,3.09a12,12,0,0,1,4,2.43c4.66,3.87,4.49,8.8-.48,12.31-4.43,3.13-9.54,4.37-14.85,4.89C143.32,141.48,141.84,141.36,140.38,141.36Z"/>
  </g>
</svg>
